<svg xmlns="http://www.w3.org/2000/svg" viewBox="0 0 242.35 253.9"><defs><style>.cls-1{fill:#4b56a5;}.cls-2{fill:#13c6ff;}</style></defs><title>Fluree Brand Mark</title><g id="Layer_2" data-name="Layer 2"><g id="Layer_1-2" data-name="Layer 1"><path class="cls-1" d="M134.35,127l91-52,14,9-73,43,19,11,26-16,14,9-23,15,40,23-17,10Z"/><path class="cls-2" d="M108,127,17,75,3,84l73,43L57,138,31,122l-14,9,23,15L0,169l17,10Z"/><path class="cls-2" d="M128.83,139.37l90.53,52.81q-.39,8.31-.79,16.63l-73.74-41.72,0,21.95,26.86,14.52q-.41,8.31-.8,16.62l-24.49-12.42.09,46.14-17.16-9.72Q129.06,191.79,128.83,139.37Z"/><path class="cls-1" d="M115.08,138.56Q69.81,165,24.55,191.37q.39,8.31.79,16.62l73.74-41.72,0,22q-13.44,7.25-26.86,14.51.39,8.31.79,16.63L97.53,207q0,23.07-.08,46.14l17.16-9.72Q114.85,191,115.08,138.56Z"/><path class="cls-2" d="M128.83,114.53l90.53-52.81q-.39-8.31-.79-16.62L144.83,86.82l0-22,26.86-14.51q-.41-8.31-.8-16.63L146.37,46.14,146.46,0,129.3,9.72Q129.06,62.13,128.83,114.53Z"/><path class="cls-1" d="M115.31,115.32Q70,88.92,24.78,62.51q.39-8.31.79-16.62L99.31,87.61q0-11,0-22L72.48,51.14q.39-8.31.79-16.63L97.76,46.93q0-23.07-.08-46.14l17.16,9.72Q115.08,62.92,115.31,115.32Z"/></g></g></svg>